<svg xmlns="http://www.w3.org/2000/svg" width="59" height="64"><path d="M50.286 35.429v17.143q0 .929-.679 1.607T48 54.858H34.286V41.144h-9.143v13.714H11.429q-.929 0-1.607-.679t-.679-1.607V35.429q0-.036.018-.107t.018-.107l20.536-16.929 20.536 16.929q.036.071.036.214zm7.964-2.465l-2.214 2.643q-.286.321-.75.393h-.107q-.464 0-.75-.25L29.715 15.143 5.001 35.75q-.429.286-.857.25-.464-.071-.75-.393L1.18 32.964q-.286-.357-.25-.839t.393-.768L27.002 9.964q1.143-.929 2.714-.929t2.714.929l8.714 7.286v-6.964q0-.5.321-.821t.821-.321h6.857q.5 0 .821.321t.321.821v14.571l7.821 6.5q.357.286.393.768t-.25.839z"/></svg>